<svg xmlns="http://www.w3.org/2000/svg" id="Ebene_1" data-name="Ebene 1" viewBox="0 0 189.6 51.92"><defs><style>.cls-1{fill:#fff;fill-rule:evenodd;}</style></defs><title>logo_tece_weiss_ohne-claim</title><path class="cls-1" d="M187.19,20.77H169.26V2.93h17.93ZM188.66.53H167.79a.91.91,0,0,0-.94.93V22.23a.91.91,0,0,0,.94.93h20.87a.91.91,0,0,0,.94-.93V1.46A.91.91,0,0,0,188.66.53Z"/><path class="cls-1" d="M188.66,28.75H167.79a.91.91,0,0,0-.94.93V50.45a.91.91,0,0,0,.94.93h20.87a.91.91,0,0,0,.94-.93V29.82A1,1,0,0,0,188.66,28.75Z"/><path class="cls-1" d="M34.52.53H.94A.91.91,0,0,0,0,1.46V8a.91.91,0,0,0,.94.93H12.18V50.58a.91.91,0,0,0,.94.93h9.37a.91.91,0,0,0,.94-.93V8.79H34.65a.91.91,0,0,0,.94-.93V1.46A1.13,1.13,0,0,0,34.52.53Z"/><path class="cls-1" d="M95.27,10a13.75,13.75,0,0,1,6.56-1.73,39.27,39.27,0,0,1,11.64,2,1,1,0,0,0,1.2-.67L115.74,4a1.52,1.52,0,0,0-.94-1.73,45.72,45.72,0,0,0-13-2.26,32.84,32.84,0,0,0-8.7.93C86.7,2.53,82.69,7.32,81.22,14.78A62.41,62.41,0,0,0,80.28,26a63.57,63.57,0,0,0,.94,11.18C82.69,44.59,86.7,49.39,93.13,51a32.83,32.83,0,0,0,8.7.93,45.72,45.72,0,0,0,13-2.26,1.4,1.4,0,0,0,.94-1.73l-1.2-5.46a1,1,0,0,0-1.2-.67,40.17,40.17,0,0,1-11.64,2,12.39,12.39,0,0,1-6.56-1.73C92.73,40.6,91.65,38.2,91,35a62.4,62.4,0,0,1-.67-8.92,61.68,61.68,0,0,1,.54-8.52C91.52,14.24,92.86,11.58,95.27,10Z"/><path class="cls-1" d="M75.73.53H42.15a.91.91,0,0,0-.94.93v49a.91.91,0,0,0,.94.93H75.73a.91.91,0,0,0,.94-.93V44.06a.91.91,0,0,0-.94-.93H52.45V29.55h17.8a.91.91,0,0,0,.94-.93V22.1a.91.91,0,0,0-.94-.93H52.45V8.79H75.73a.91.91,0,0,0,.94-.93V1.46C76.8.93,76.27.53,75.73.53Z"/><path class="cls-1" d="M156,.53H122.43a.91.91,0,0,0-.94.93v49a.91.91,0,0,0,.94.93H156a.91.91,0,0,0,.94-.93V44.06a.91.91,0,0,0-.94-.93H132.73V29.55h17.8a.91.91,0,0,0,.94-.93V22.1a.91.91,0,0,0-.94-.93h-17.8V8.79H156a.91.91,0,0,0,.94-.93V1.46C157.08.93,156.55.53,156,.53Z"/></svg>
