<?xml version="1.0" encoding="utf-8"?>
<!-- Generator: Adobe Illustrator 22.1.0, SVG Export Plug-In . SVG Version: 6.00 Build 0)  -->
<svg version="1.1" id="Layer_1" xmlns="http://www.w3.org/2000/svg" xmlns:xlink="http://www.w3.org/1999/xlink" x="0px" y="0px"
	 width="80px" height="80px" viewBox="0 0 80 80" style="enable-background:new 0 0 80 80;" xml:space="preserve">
<style type="text/css">
	.st0{fill-rule:evenodd;clip-rule:evenodd;}
	.st1{fill:#020202;}
</style>
<g>
	<path d="M58.5,64.6c3.4,0,6.2-2.8,6.2-6.2c0-3.4-2.8-6.2-6.2-6.2V64.6"/>
	<path d="M63.8,31.5c-0.5-2.4-1.3-4.6-2.3-6.7v-0.1h-0.1C56.2,13.6,45,6.2,32.3,6.2c-12.9,0-23.9,7.6-29.1,18.5H3.1v0.2
		C1.1,28.9,0,33.6,0,38.5v9.2C0,65.5,14.5,80,32.3,80c5.1,0,10-1.2,14.5-3.4c3.4,2.2,7.4,3.4,11.6,3.4C70.3,80,80,70.3,80,58.5v-6.2
		C80,42.3,73.1,33.9,63.8,31.5L63.8,31.5z M66.2,38.4v-2.8c1.1,0.5,2.1,1.1,3.1,1.8v2.5C68.3,39.3,67.2,38.8,66.2,38.4L66.2,38.4z
		 M37.6,63.8c-1.7,0.6-3.5,0.9-5.3,0.9c-9.3,0-16.9-7.6-16.9-16.9S23,30.8,32.3,30.8c4.6,0,9,1.9,12.2,5.2c-4.6,4-7.6,9.8-7.6,16.3
		v6.2C36.9,60.3,37.2,62.1,37.6,63.8L37.6,63.8z M44.6,40.1V42c-1.2,1-2.3,2.2-3.3,3.5C42.1,43.5,43.2,41.7,44.6,40.1L44.6,40.1z
		 M47.7,37.3c1-0.7,2-1.3,3.1-1.8v2.8c-1.1,0.4-2.1,0.9-3.1,1.5V37.3L47.7,37.3z M53.8,34.5c1-0.3,2-0.4,3.1-0.5V37
		c-1,0.1-2.1,0.2-3.1,0.4V34.5L53.8,34.5z M36.9,15.7V9.6C38,9.8,39,10,40,10.3v6.1C39,16.1,38,15.9,36.9,15.7L36.9,15.7z
		 M43.1,11.3c1.1,0.4,2.1,0.9,3.1,1.4v5.8c-1-0.5-2-0.9-3.1-1.3V11.3L43.1,11.3z M49.2,14.7c1.1,0.8,2.1,1.6,3.1,2.5v5.2
		c-1-0.8-2-1.5-3.1-2.1V14.7L49.2,14.7z M55.4,20.6c1.2,1.5,2.2,3.1,3.1,4.8v3.4c-0.9-1.3-2-2.5-3.1-3.6V20.6L55.4,20.6z M60,33.9
		c1.1,0.1,2.1,0.3,3.1,0.5v3c-1-0.2-2-0.4-3.1-0.4V33.9L60,33.9z M33.8,9.3v6.1c-0.5,0-1-0.1-1.5-0.1c-0.5,0-1,0.1-1.5,0.1V9.3
		c0.5,0,1-0.1,1.5-0.1C32.8,9.2,33.3,9.3,33.8,9.3L33.8,9.3z M6.2,25.5C7,23.7,8,22.1,9.2,20.6v4.5c-1.1,1.1-2.1,2.4-3.1,3.7V25.5
		L6.2,25.5z M12.3,17.2c1-0.9,2-1.8,3.1-2.5v5.6c-1.1,0.7-2.1,1.4-3.1,2.1V17.2L12.3,17.2z M18.5,12.7c1-0.5,2-1,3.1-1.4v6
		c-1.1,0.4-2.1,0.8-3.1,1.3V12.7L18.5,12.7z M24.6,10.3c1-0.3,2-0.5,3.1-0.7v6.1c-1,0.2-2.1,0.3-3.1,0.6V10.3L24.6,10.3z M32.3,76.9
		c-16.1,0-29.2-13.1-29.2-29.2c0-16.1,13.1-29.2,29.2-29.2c9.5,0,18.5,4.7,23.9,12.4c-3.4,0.4-6.5,1.5-9.2,3.2
		c-3.8-4.1-9.1-6.4-14.7-6.4c-11,0-20,9-20,20c0,11,9,20,20,20c2.2,0,4.2-0.3,6.3-1c1.2,3,3.1,5.6,5.5,7.8
		C40.4,76.1,36.4,76.9,32.3,76.9L32.3,76.9z M58.5,76.9C48.3,76.9,40,68.6,40,58.5C40,48.3,48.3,40,58.5,40
		c10.2,0,18.5,8.3,18.5,18.5C76.9,68.6,68.6,76.9,58.5,76.9L58.5,76.9z M72.3,42v-1.9c1.4,1.6,2.5,3.4,3.3,5.3
		C74.6,44.2,73.5,43,72.3,42"/>
	<path d="M58.5,46.2c-6.8,0-12.3,5.5-12.3,12.3c0,6.8,5.5,12.3,12.3,12.3s12.3-5.5,12.3-12.3C70.8,51.7,65.2,46.2,58.5,46.2
		L58.5,46.2z M58.5,67.7c-5.1,0-9.2-4.1-9.2-9.2s4.1-9.2,9.2-9.2s9.2,4.1,9.2,9.2S63.6,67.7,58.5,67.7"/>
	<polyline points="27.7,43.1 30.8,43.1 30.8,55.4 33.8,55.4 33.8,40 27.7,40 	"/>
</g>
</svg>
