<?xml version="1.0" encoding="utf-8"?>
<!-- Generator: Adobe Illustrator 22.1.0, SVG Export Plug-In . SVG Version: 6.00 Build 0)  -->
<svg version="1.1" id="Layer_1" xmlns="http://www.w3.org/2000/svg" xmlns:xlink="http://www.w3.org/1999/xlink" x="0px" y="0px"
	 width="80px" height="80px" viewBox="0 0 80 80" style="enable-background:new 0 0 80 80;" xml:space="preserve">
<style type="text/css">
	.st0{fill-rule:evenodd;clip-rule:evenodd;}
	.st1{fill:#020202;}
</style>
<path d="M40,0C17.9,0,0,17.9,0,40c0,19.2,13.6,35.3,31.7,39.1c1,0.2,2,0.4,3,0.5c1.7,0.2,3.5,0.4,5.3,0.4c1.3,0,2.6-0.1,3.9-0.2
	c1-0.1,2-0.2,3-0.4C65.7,76.1,80,59.7,80,40C80,17.9,62.1,0,40,0z M46.9,76.3c-1,0.2-2,0.3-3,0.4V54.3h7.7l1.1-8.9h-8.8v-5.7
	c0-2.6,0.7-4.3,4.4-4.3l4.7,0v-8c-0.8-0.1-3.6-0.4-6.9-0.4c-6.8,0-11.4,4.1-11.4,11.8v6.6H27v8.9h7.7v22.3c-1-0.1-2-0.3-3-0.6
	C15.3,72.3,3,57.5,3,40C3,19.6,19.6,3,40,3s37,16.6,37,37C77,58.1,64,73.1,46.9,76.3z"/>
</svg>
