<?xml version="1.0" encoding="utf-8"?>
<!-- Generator: Adobe Illustrator 22.1.0, SVG Export Plug-In . SVG Version: 6.00 Build 0)  -->
<svg version="1.1" id="Layer_1" xmlns="http://www.w3.org/2000/svg" xmlns:xlink="http://www.w3.org/1999/xlink" x="0px" y="0px"
	 width="80px" height="80px" viewBox="0 0 80 80" style="enable-background:new 0 0 80 80;" xml:space="preserve">
<style type="text/css">
	.st0{fill-rule:evenodd;clip-rule:evenodd;}
	.st1{fill:#020202;}
</style>
<g>
	<polyline points="75.4,76.9 75.4,44.6 72.3,44.6 72.3,76.9 66.2,76.9 66.2,38.5 63.1,38.5 63.1,76.9 56.9,76.9 56.9,49.2 
		53.8,49.2 53.8,76.9 44.6,76.9 44.6,55.4 41.5,55.4 41.5,76.9 35.4,76.9 35.4,63.1 32.3,63.1 32.3,76.9 26.2,76.9 26.2,44.6 
		23.1,44.6 23.1,76.9 16.9,76.9 16.9,69.2 13.8,69.2 13.8,76.9 7.7,76.9 7.7,63.1 4.6,63.1 4.6,76.9 0,76.9 0,80 80,80 80,76.9 	"/>
	<path d="M68.9,15.5l-8,2.2c-1,0.3-1.3,1.5-0.6,2.2l2.6,2.6L46.3,39.2c-1.8,1.8-4.7,1.8-6.5,0l-9.8-9.8c-3-3-7.9-3-10.9,0L5.1,43.5
		l2.2,2.2l14.1-14.1c1.8-1.8,4.7-1.8,6.5,0l9.8,9.8c3,3,7.9,3,10.9,0l16.7-16.7l2.6,2.6c0.7,0.7,2,0.4,2.2-0.6l2.2-8
		C72.8,16.8,70.9,14.9,68.9,15.5"/>
</g>
</svg>
