<?xml version="1.0" encoding="utf-8"?>
<!-- Generator: Adobe Illustrator 22.1.0, SVG Export Plug-In . SVG Version: 6.00 Build 0)  -->
<svg version="1.1" id="Layer_1" xmlns="http://www.w3.org/2000/svg" xmlns:xlink="http://www.w3.org/1999/xlink" x="0px" y="0px"
	 width="80px" height="80px" viewBox="0 0 80 80" style="enable-background:new 0 0 80 80;" xml:space="preserve">
<style type="text/css">
	.st0{fill-rule:evenodd;clip-rule:evenodd;}
	.st1{fill:#020202;}
</style>
<g>
	<path d="M11.2,37.1c0,1.6-1.3,2.8-2.8,2.8c-1.6,0-2.8-1.3-2.8-2.8c0-1.6,1.3-2.8,2.8-2.8C9.9,34.2,11.2,35.5,11.2,37.1"/>
	<path d="M74.4,34.1c0,1.6-1.3,2.8-2.8,2.8s-2.8-1.3-2.8-2.8c0-1.6,1.3-2.8,2.8-2.8S74.4,32.5,74.4,34.1"/>
	<path d="M78.7,31L56.6,8.9c-1.7-1.7-4.5-1.7-6.2,0l-4,4c-1.3,1.3-1.6,3.3-0.9,4.9l-3.1,3.1l-0.9-0.9c-1.4-1.4-3.2-2.1-5.1-2.1
		c-0.6,0-1.2,0.1-1.8,0.2c-0.2-0.8-0.6-1.5-1.2-2.1l-4-4c-1.7-1.7-4.5-1.7-6.2,0L1.3,34c-1.7,1.7-1.7,4.5,0.1,6.2l4.1,4v0
		c0.8,0.9,1.9,1.3,3,1.3c0.3,0,0.5,0,0.8-0.1c0.1,1.8,0.7,3.5,2.1,4.8l0.9,0.9L11.3,52C9,54.3,9,58,11.3,60.2c1,1,2.2,1.5,3.5,1.6
		c-0.4,1.9,0.1,3.9,1.5,5.4c1.1,1.1,2.6,1.7,4.1,1.7c0.4,0,0.9-0.1,1.3-0.2c0.1,1.3,0.7,2.5,1.6,3.5c1.1,1.1,2.6,1.7,4.1,1.7
		c0.4,0,0.9-0.1,1.3-0.2c0.1,1.3,0.7,2.5,1.6,3.5c1.1,1.1,2.6,1.7,4.1,1.7c1.4,0,2.9-0.5,4-1.6l0.9,0.9c1.1,1.1,2.6,1.7,4.1,1.7
		c1.5,0,3-0.6,4.1-1.7c0.7-0.7,1.2-1.6,1.4-2.5c1,0.8,2.3,1.2,3.5,1.2c1.5,0,3-0.6,4.1-1.7c0.8-0.8,1.3-1.8,1.5-2.8
		c0.8,0.3,1.6,0.5,2.4,0.5c1.5,0,3-0.6,4.1-1.7c1.1-1.1,1.7-2.6,1.7-4.1c0-0.8-0.2-1.6-0.5-2.4c1-0.2,2-0.7,2.8-1.5
		c2.3-2.3,2.3-5.9,0-8.2l-3.9-3.9l3.9-3.9c1.3-1.3,2-3.1,2.1-4.8c0.3,0.1,0.6,0.1,0.8,0.1c1.1,0,2.2-0.4,3.1-1.3l4-4
		C80.4,35.4,80.4,32.7,78.7,31L78.7,31z M7.4,42l-4-4c-0.5-0.5-0.5-1.3,0-1.8l22.1-22.1c0.5-0.5,1.3-0.5,1.8,0l4,4
		c0.5,0.5,0.5,1.3,0,1.8l-5,5l-11,11l-4,4l0,0l-2,2C8.8,42.5,8,42.5,7.4,42L7.4,42z M13.5,54.2c0.5-0.5,1.2-0.8,1.9-0.8
		c0.7,0,1.4,0.3,1.9,0.8c0.5,0.5,0.8,1.2,0.8,1.9c0,0.7-0.3,1.4-0.8,1.9c-1.1,1.1-2.8,1.1-3.8,0C12.4,57,12.4,55.3,13.5,54.2
		L13.5,54.2z M18.5,65.1c-1.1-1.1-1.1-2.8,0-3.8l1-1l1-1c1-1,2.8-1,3.8,0c1.1,1.1,1.1,2.8,0,3.8l-1,1l-1,1
		C21.3,66.1,19.5,66.1,18.5,65.1L18.5,65.1z M25.5,70.1c-1.1-1.1-1.1-2.8,0-3.8c0.5-0.5,1.2-0.8,1.9-0.8c0.7,0,1.4,0.3,1.9,0.8
		c1.1,1.1,1.1,2.8,0,3.8C28.3,71.2,26.6,71.2,25.5,70.1L25.5,70.1z M36.4,75.1c-1.1,1.1-2.8,1.1-3.8,0c-1.1-1.1-1.1-2.8,0-3.8
		c0.5-0.5,1.2-0.8,1.9-0.8c0.7,0,1.4,0.3,1.9,0.8C37.5,72.3,37.5,74.1,36.4,75.1L36.4,75.1z M66.5,61.1c-1.1,1.1-2.8,1.1-3.8,0l-5-5
		l-7-7l-2.2,2.2l14.1,14.1c0.5,0.5,0.8,1.2,0.8,1.9c0,0.7-0.3,1.4-0.8,1.9c-1.1,1.1-2.8,1.1-3.8,0l-2-2l-3-3l-9-9l-2.2,2.2l9,9l3,3
		c1.1,1.1,1.1,2.8,0,3.8c-1.1,1.1-2.8,1.1-3.8,0l-3-3l-9-9l-2.2,2.2l9,9c1.1,1.1,1.1,2.8,0,3.8c-1.1,1.1-2.8,1.1-3.8,0l-1.5-1.5
		c0.5-1.9,0-4-1.5-5.5c-1.5-1.5-3.5-2-5.4-1.5c-0.1-1.3-0.7-2.5-1.6-3.5c-1-1-2.2-1.5-3.5-1.6c0.4-1.9-0.1-3.9-1.5-5.4
		c-1.5-1.5-3.5-2-5.4-1.5C21,54.2,20.4,53,19.5,52c-1.1-1.1-2.4-1.6-3.8-1.7l-0.3-0.3l0.1-0.1l-2-2c-1.6-1.6-1.6-4.2,0-5.8
		l20.1-20.1c0,0,0,0,0,0c1.6-1.6,4.3-1.6,5.8,0l0.9,0.9l-5.9,5.9l-3,3c-1.4,1.4-2.1,3.2-2.1,5.1c0,1.9,0.8,3.7,2.1,5.1
		c2.8,2.8,7.4,2.8,10.2,0l4.9-4.9l20,20C67.6,58.3,67.6,60,66.5,61.1L66.5,61.1z M66.5,45l-3.9,3.9L46.5,32.9L39.4,40
		c-1.6,1.6-4.2,1.6-5.9,0c-0.8-0.8-1.2-1.8-1.2-2.9c0-1.1,0.4-2.1,1.2-2.9l6-6l7.9-7.9l19,19C68.1,40.8,68.1,43.4,66.5,45L66.5,45z
		 M76.5,35l-4,4c-0.5,0.5-1.3,0.5-1.8,0l-2-2c0,0,0,0,0,0l-3-3l-11-11l-1.5-1.5l-4.6-4.6c-0.5-0.5-0.5-1.3,0-1.8l4-4
		c0.3-0.3,0.6-0.4,0.9-0.4c0.3,0,0.7,0.1,0.9,0.4l22.1,22.1C77.1,33.6,77.1,34.5,76.5,35"/>
</g>
</svg>
