<?xml version="1.0" encoding="utf-8"?>
<!-- Generator: Adobe Illustrator 22.1.0, SVG Export Plug-In . SVG Version: 6.00 Build 0)  -->
<svg version="1.1" id="Layer_1" xmlns="http://www.w3.org/2000/svg" xmlns:xlink="http://www.w3.org/1999/xlink" x="0px" y="0px"
	 width="80px" height="80px" viewBox="0 0 80 80" style="enable-background:new 0 0 80 80;" xml:space="preserve">
<style type="text/css">
	.st0{fill-rule:evenodd;clip-rule:evenodd;}
	.st1{fill:#020202;}
</style>
<g>
	<path d="M75.4,27.7H64.6v-4.6c0-2.5-2.1-4.6-4.6-4.6h-6.4c-0.6-1.8-2.3-3.1-4.3-3.1H30.8c-2,0-3.7,1.3-4.3,3.1H20
		c-2.5,0-4.6,2.1-4.6,4.6v4.6H4.6c-2.5,0-4.6,2.1-4.6,4.6v33.8c0,2.5,2.1,4.6,4.6,4.6h10.8v4.6c0,2.5,2.1,4.6,4.6,4.6h40
		c2.5,0,4.6-2.1,4.6-4.6v-4.6h10.8c2.5,0,4.6-2.1,4.6-4.6V32.3C80,29.8,77.9,27.7,75.4,27.7L75.4,27.7z M75.4,30.8
		c0.8,0,1.5,0.7,1.5,1.5v29.2h-1.7c-0.5-3.5-2.5-6.7-5.4-8.7c0.6-1.1,0.9-2.3,0.9-3.6v-3.1c0-3.7-2.6-6.8-6.2-7.5v-7.8L75.4,30.8
		L75.4,30.8z M67.7,49.2c0,2-1.3,3.7-3.1,4.3V41.8c1.8,0.6,3.1,2.3,3.1,4.3V49.2L67.7,49.2z M67.9,55.2c2.2,1.4,3.8,3.9,4.3,6.3
		h-7.5v-4.8C65.8,56.5,66.9,56,67.9,55.2L67.9,55.2z M29.2,20c0-0.8,0.7-1.5,1.5-1.5h18.5c0.8,0,1.5,0.7,1.5,1.5v1.5
		c0,0.8-0.7,1.5-1.5,1.5H30.8c-0.8,0-1.5-0.7-1.5-1.5V20L29.2,20z M20,21.5h6.2c0,2.5,2.1,4.6,4.6,4.6h18.5c2.5,0,4.6-2.1,4.6-4.6
		H60c0.8,0,1.5,0.7,1.5,1.5v47.7h-1.9c-1-5.3-4.1-10-8.6-13c0.8-1.7,1.3-3.5,1.3-5.5v-6.2c0-6.8-5.5-12.3-12.3-12.3
		c-6.8,0-12.3,5.5-12.3,12.3v6.2c0,2,0.5,3.8,1.3,5.5c-4.5,3-7.6,7.7-8.6,13h-1.9V23.1C18.5,22.2,19.2,21.5,20,21.5L20,21.5z
		 M49.2,52.3c0,5.1-4.1,9.2-9.2,9.2s-9.2-4.1-9.2-9.2v-6.2c0-5.1,4.1-9.2,9.2-9.2s9.2,4.1,9.2,9.2V52.3L49.2,52.3z M40,64.6
		c3.7,0,7-1.7,9.3-4.3c3.7,2.4,6.3,6.2,7.2,10.4h-33c1-4.3,3.6-8,7.2-10.4C33,63,36.3,64.6,40,64.6L40,64.6z M15.4,53.6
		c-1.8-0.6-3.1-2.3-3.1-4.3v-3.1c0-2,1.3-3.7,3.1-4.3V53.6L15.4,53.6z M12.1,55.2c0.9,0.8,2,1.3,3.2,1.6v4.8H7.8
		C8.3,58.9,9.9,56.6,12.1,55.2L12.1,55.2z M4.6,30.8h10.8v7.8c-3.5,0.7-6.2,3.8-6.2,7.5v3.1c0,1.3,0.4,2.5,0.9,3.6
		c-3,2-5,5.2-5.4,8.7H3.1V32.3C3.1,31.5,3.8,30.8,4.6,30.8L4.6,30.8z M4.6,67.7c-0.8,0-1.5-0.7-1.5-1.5v-1.5h12.3v3.1L4.6,67.7
		L4.6,67.7z M60,76.9H20c-0.8,0-1.5-0.7-1.5-1.5v-1.5h43.1v1.5C61.5,76.2,60.8,76.9,60,76.9L60,76.9z M75.4,67.7H64.6v-3.1h12.3v1.5
		C76.9,67,76.2,67.7,75.4,67.7"/>
</g>
</svg>
