<?xml version="1.0" encoding="utf-8"?>
<!-- Generator: Adobe Illustrator 22.1.0, SVG Export Plug-In . SVG Version: 6.00 Build 0)  -->
<svg version="1.1" id="Layer_1" xmlns="http://www.w3.org/2000/svg" xmlns:xlink="http://www.w3.org/1999/xlink" x="0px" y="0px"
	 width="80px" height="80px" viewBox="0 0 80 80" style="enable-background:new 0 0 80 80;" xml:space="preserve">
<style type="text/css">
	.st0{fill-rule:evenodd;clip-rule:evenodd;}
	.st1{fill:#020202;}
</style>
<g>
	<path d="M50.8,50.8c0,1.7-1.4,3.1-3.1,3.1c-1.7,0-3.1-1.4-3.1-3.1c0-1.7,1.4-3.1,3.1-3.1C49.4,47.7,50.8,49.1,50.8,50.8"/>
	<path d="M32.3,50.8c0,1.7-1.4,3.1-3.1,3.1c-1.7,0-3.1-1.4-3.1-3.1c0-1.7,1.4-3.1,3.1-3.1S32.3,49.1,32.3,50.8"/>
	<path d="M43.1,56.9h-9.2c-0.8,0-1.5,0.7-1.5,1.5h0h0c0,3.1,2.8,6.2,6.2,6.2c3.4,0,6.2-2.8,6.2-6.2C44.6,57.6,43.9,56.9,43.1,56.9"
		/>
	<path d="M73.8,41.5c0-2.5-2.1-4.6-4.6-4.6h-1.5c0-12.9-8.4-23.8-20-27.7V7.7c0-2.5-2.1-4.6-4.6-4.6c-0.6,0-1.2,0.1-1.7,0.3
		c-0.5-2-2.3-3.4-4.4-3.4c-2.5,0-4.6,2.1-4.6,4.6v3.7C25.2,9.9,18.9,14,14.6,20H3.1v4.6c0,4.3,2.6,8.1,6.3,9.8
		c-0.1,0.8-0.1,1.7-0.1,2.5v1.7c-3.5,0.7-6.2,3.8-6.2,7.5c0,4.2,3.5,7.7,7.7,7.7h1.9c1.8,10.1,9.5,18.4,19.7,20.8
		c0.4,3,3,5.3,6.1,5.3h9.2c2.9,0,5.2-2,5.9-4.6h4.8c5.9,0,10.8-4.8,10.8-10.8v-9.2c2.5,0,4.6-2.1,4.6-4.6c1.7,0,3.1-1.4,3.1-3.1
		v-3.1C76.9,42.9,75.5,41.5,73.8,41.5L73.8,41.5z M43.1,6.2c0.8,0,1.5,0.7,1.5,1.5v0.7c-1-0.2-2-0.4-3.1-0.5V7.7
		C41.5,6.8,42.2,6.2,43.1,6.2L43.1,6.2z M35.4,4.6c0-0.8,0.7-1.5,1.5-1.5c0.8,0,1.5,0.7,1.5,1.5v3.1c-1,0-2.1,0.1-3.1,0.2L35.4,4.6
		L35.4,4.6z M38.5,10.8c14.4,0,26.2,11.7,26.2,26.2h-3.1v7.7H60c-0.8,0-1.5-0.7-1.5-1.5v-6.2c0-2.5-2.1-4.6-4.6-4.6H43.1v-1.5
		c0-5.9-4.8-10.8-10.8-10.8H18.5C23.5,14.2,30.7,10.8,38.5,10.8L38.5,10.8z M6.2,24.6v-1.5h26.2c4.2,0,7.7,3.5,7.7,7.7v1.5H13.8
		C9.6,32.3,6.2,28.9,6.2,24.6L6.2,24.6z M10.8,50.8c-2.5,0-4.6-2.1-4.6-4.6c0-2.5,2.1-4.6,4.6-4.6h1.5v7.7c0,0.5,0,1,0,1.5H10.8
		L10.8,50.8z M12.3,38.5v-1.5c0-0.6,0.1-1.1,0.1-1.6c0.5,0.1,1,0.1,1.4,0.1h4.9c-0.2,0.5-0.3,1-0.3,1.5v6.2c0,0.8-0.7,1.5-1.5,1.5
		h-1.5v-6.2H12.3L12.3,38.5z M15.4,49.2v-1.5h1.5c2.5,0,4.6-2.1,4.6-4.6v-6.2c0-0.8,0.7-1.5,1.5-1.5h30.8c0.8,0,1.5,0.7,1.5,1.5v6.2
		c0,2.5,2.1,4.6,4.6,4.6h1.5v1.5c0,7.8-4,15.2-10.6,19.4c-0.9-0.6-2-0.9-3.2-0.9h-9.2c-2.6,0-4.8,1.6-5.7,3.9
		C22.6,69,15.4,59.8,15.4,49.2L15.4,49.2z M47.7,76.9h-9.2c-1.7,0-3.1-1.4-3.1-3.1c0-1.7,1.4-3.1,3.1-3.1h9.2c1.7,0,3.1,1.4,3.1,3.1
		C50.8,75.5,49.4,76.9,47.7,76.9L47.7,76.9z M66.2,64.6c0,4.2-3.5,7.7-7.7,7.7h-4.8c-0.1-0.5-0.3-1-0.6-1.4
		c5.4-3.7,9.3-9.3,10.8-15.5h2.3V64.6L66.2,64.6z M70.8,50.8c0,0.8-0.7,1.5-1.5,1.5h-4.6V40h4.6c0.8,0,1.5,0.7,1.5,1.5V50.8"/>
	<rect x="43.1" y="41.5" width="9.2" height="3.1"/>
	<rect x="24.6" y="41.5" width="9.2" height="3.1"/>
</g>
</svg>
