<?xml version="1.0" encoding="utf-8"?>
<!-- Generator: Adobe Illustrator 22.1.0, SVG Export Plug-In . SVG Version: 6.00 Build 0)  -->
<svg version="1.1" id="Layer_1" xmlns="http://www.w3.org/2000/svg" xmlns:xlink="http://www.w3.org/1999/xlink" x="0px" y="0px"
	 width="80px" height="80px" viewBox="0 0 80 80" style="enable-background:new 0 0 80 80;" xml:space="preserve">
<style type="text/css">
	.st0{fill-rule:evenodd;clip-rule:evenodd;}
	.st1{fill:#020202;}
</style>
<g>
	<path class="st1" d="M40,3c20.4,0,37,16.6,37,37S60.4,77,40,77S3,60.4,3,40S19.6,3,40,3 M40,0C17.9,0,0,17.9,0,40s17.9,40,40,40
		c22.1,0,40-17.9,40-40S62.1,0,40,0L40,0z"/>
</g>
<path class="st1" d="M54.6,24.6l-36.2,14c-2.5,1-2.5,2.4-0.5,3l9.2,2.9L30.4,55c0.4,1.2,0.2,1.6,1.4,1.6c0.4,0,0.6-0.1,0.9-0.2
	c0.1,0,0.2-0.1,0.3-0.2c0.2-0.2,0.5-0.4,0.7-0.6l4.6-4.4l9.4,7c1.7,1,3,0.5,3.4-1.6l6.2-29.1C57.9,25,56.3,23.8,54.6,24.6z
	 M28.3,43.8l17.4-11l3.6-2.2c0.9-0.4,1.4,0,0.7,0.7L32.8,46.8c0,0,0,0,0,0c-0.3,0.3-0.3,0.5-0.4,0.6l-0.9,6.9L28.3,43.8z"/>
</svg>
